<mxfile host="app.diagrams.net" agent="Mozilla/5.0 (Windows NT 10.0; Win64; x64) AppleWebKit/537.36 (KHTML, like Gecko) Chrome/131.0.0.0 Safari/537.36 Edg/131.0.0.0" version="26.1.3">
  <diagram name="第 1 页" id="WozTRGU5LZsFaTOQfoMg">
    <mxGraphModel dx="1514" dy="863" grid="1" gridSize="10" guides="1" tooltips="1" connect="1" arrows="1" fold="1" page="1" pageScale="1" pageWidth="827" pageHeight="583" math="0" shadow="0">
      <root>
        <mxCell id="0" />
        <mxCell id="1" parent="0" />
        <mxCell id="OIMMLYKE_nMt5e0ipZ6Z-1" value="" style="swimlane;startSize=0;" vertex="1" parent="1">
          <mxGeometry x="130" y="190" width="190" height="370" as="geometry" />
        </mxCell>
        <mxCell id="OIMMLYKE_nMt5e0ipZ6Z-9" style="edgeStyle=orthogonalEdgeStyle;rounded=0;orthogonalLoop=1;jettySize=auto;html=1;exitX=0.5;exitY=1;exitDx=0;exitDy=0;entryX=0.5;entryY=0;entryDx=0;entryDy=0;" edge="1" parent="OIMMLYKE_nMt5e0ipZ6Z-1" source="OIMMLYKE_nMt5e0ipZ6Z-2" target="OIMMLYKE_nMt5e0ipZ6Z-5">
          <mxGeometry relative="1" as="geometry" />
        </mxCell>
        <mxCell id="OIMMLYKE_nMt5e0ipZ6Z-30" style="edgeStyle=orthogonalEdgeStyle;rounded=0;orthogonalLoop=1;jettySize=auto;html=1;" edge="1" parent="OIMMLYKE_nMt5e0ipZ6Z-1">
          <mxGeometry relative="1" as="geometry">
            <mxPoint x="99.5" y="30" as="targetPoint" />
            <mxPoint x="99.5" y="29" as="sourcePoint" />
            <Array as="points">
              <mxPoint x="99.5" y="-21" />
              <mxPoint x="99.5" y="-21" />
            </Array>
          </mxGeometry>
        </mxCell>
        <mxCell id="OIMMLYKE_nMt5e0ipZ6Z-2" value="&lt;font style=&quot;font-size: 16px;&quot;&gt;Norm&lt;/font&gt;" style="rounded=0;whiteSpace=wrap;html=1;" vertex="1" parent="OIMMLYKE_nMt5e0ipZ6Z-1">
          <mxGeometry x="50" y="30" width="100" height="30" as="geometry" />
        </mxCell>
        <mxCell id="OIMMLYKE_nMt5e0ipZ6Z-5" value="&lt;font style=&quot;font-size: 16px;&quot;&gt;LK Selection&lt;/font&gt;" style="rounded=0;whiteSpace=wrap;html=1;" vertex="1" parent="OIMMLYKE_nMt5e0ipZ6Z-1">
          <mxGeometry x="50" y="90" width="100" height="30" as="geometry" />
        </mxCell>
        <mxCell id="OIMMLYKE_nMt5e0ipZ6Z-15" style="edgeStyle=orthogonalEdgeStyle;rounded=0;orthogonalLoop=1;jettySize=auto;html=1;exitX=0.5;exitY=1;exitDx=0;exitDy=0;entryX=0.5;entryY=0;entryDx=0;entryDy=0;" edge="1" parent="OIMMLYKE_nMt5e0ipZ6Z-1" source="OIMMLYKE_nMt5e0ipZ6Z-6" target="OIMMLYKE_nMt5e0ipZ6Z-7">
          <mxGeometry relative="1" as="geometry" />
        </mxCell>
        <mxCell id="OIMMLYKE_nMt5e0ipZ6Z-6" value="&lt;font style=&quot;font-size: 16px;&quot;&gt;Norm&lt;/font&gt;" style="rounded=0;whiteSpace=wrap;html=1;" vertex="1" parent="OIMMLYKE_nMt5e0ipZ6Z-1">
          <mxGeometry x="50" y="240" width="100" height="30" as="geometry" />
        </mxCell>
        <mxCell id="OIMMLYKE_nMt5e0ipZ6Z-29" style="edgeStyle=orthogonalEdgeStyle;rounded=0;orthogonalLoop=1;jettySize=auto;html=1;exitX=0.5;exitY=1;exitDx=0;exitDy=0;" edge="1" parent="OIMMLYKE_nMt5e0ipZ6Z-1" source="OIMMLYKE_nMt5e0ipZ6Z-7">
          <mxGeometry relative="1" as="geometry">
            <mxPoint x="100" y="400" as="targetPoint" />
          </mxGeometry>
        </mxCell>
        <mxCell id="OIMMLYKE_nMt5e0ipZ6Z-7" value="&lt;font style=&quot;font-size: 16px;&quot;&gt;FF&lt;font style=&quot;&quot;&gt;N&lt;/font&gt;&lt;/font&gt;" style="rounded=0;whiteSpace=wrap;html=1;" vertex="1" parent="OIMMLYKE_nMt5e0ipZ6Z-1">
          <mxGeometry x="50" y="300" width="100" height="30" as="geometry" />
        </mxCell>
        <mxCell id="OIMMLYKE_nMt5e0ipZ6Z-13" value="" style="endArrow=none;html=1;rounded=0;entryX=0.5;entryY=1;entryDx=0;entryDy=0;" edge="1" parent="OIMMLYKE_nMt5e0ipZ6Z-1" source="OIMMLYKE_nMt5e0ipZ6Z-18" target="OIMMLYKE_nMt5e0ipZ6Z-5">
          <mxGeometry width="50" height="50" relative="1" as="geometry">
            <mxPoint x="180" y="270" as="sourcePoint" />
            <mxPoint x="230" y="220" as="targetPoint" />
          </mxGeometry>
        </mxCell>
        <mxCell id="OIMMLYKE_nMt5e0ipZ6Z-18" value="" style="shape=orEllipse;perimeter=ellipsePerimeter;whiteSpace=wrap;html=1;backgroundOutline=1;" vertex="1" parent="OIMMLYKE_nMt5e0ipZ6Z-1">
          <mxGeometry x="95" y="170" width="10" height="10" as="geometry" />
        </mxCell>
        <mxCell id="OIMMLYKE_nMt5e0ipZ6Z-21" value="" style="endArrow=none;html=1;rounded=0;entryX=0.5;entryY=1;entryDx=0;entryDy=0;" edge="1" parent="OIMMLYKE_nMt5e0ipZ6Z-1" source="OIMMLYKE_nMt5e0ipZ6Z-6" target="OIMMLYKE_nMt5e0ipZ6Z-18">
          <mxGeometry width="50" height="50" relative="1" as="geometry">
            <mxPoint x="180" y="430" as="sourcePoint" />
            <mxPoint x="180" y="310" as="targetPoint" />
          </mxGeometry>
        </mxCell>
        <mxCell id="OIMMLYKE_nMt5e0ipZ6Z-27" value="" style="shape=orEllipse;perimeter=ellipsePerimeter;whiteSpace=wrap;html=1;backgroundOutline=1;" vertex="1" parent="OIMMLYKE_nMt5e0ipZ6Z-1">
          <mxGeometry x="95" y="350" width="10" height="10" as="geometry" />
        </mxCell>
        <mxCell id="OIMMLYKE_nMt5e0ipZ6Z-54" value="" style="endArrow=none;dashed=1;html=1;rounded=0;entryX=0;entryY=0;entryDx=0;entryDy=0;" edge="1" parent="OIMMLYKE_nMt5e0ipZ6Z-1" target="OIMMLYKE_nMt5e0ipZ6Z-38">
          <mxGeometry width="50" height="50" relative="1" as="geometry">
            <mxPoint x="150" y="90" as="sourcePoint" />
            <mxPoint x="200" y="40" as="targetPoint" />
          </mxGeometry>
        </mxCell>
        <mxCell id="OIMMLYKE_nMt5e0ipZ6Z-56" value="" style="endArrow=none;dashed=1;html=1;rounded=0;entryX=0;entryY=1;entryDx=0;entryDy=0;" edge="1" parent="OIMMLYKE_nMt5e0ipZ6Z-1" target="OIMMLYKE_nMt5e0ipZ6Z-38">
          <mxGeometry width="50" height="50" relative="1" as="geometry">
            <mxPoint x="150" y="120" as="sourcePoint" />
            <mxPoint x="220" y="140" as="targetPoint" />
          </mxGeometry>
        </mxCell>
        <mxCell id="OIMMLYKE_nMt5e0ipZ6Z-57" value="" style="endArrow=none;dashed=1;html=1;rounded=0;entryX=0;entryY=0;entryDx=0;entryDy=0;" edge="1" parent="OIMMLYKE_nMt5e0ipZ6Z-1" target="OIMMLYKE_nMt5e0ipZ6Z-50">
          <mxGeometry width="50" height="50" relative="1" as="geometry">
            <mxPoint x="150" y="300" as="sourcePoint" />
            <mxPoint x="200" y="250" as="targetPoint" />
          </mxGeometry>
        </mxCell>
        <mxCell id="OIMMLYKE_nMt5e0ipZ6Z-58" value="" style="endArrow=none;dashed=1;html=1;rounded=0;entryX=0;entryY=1;entryDx=0;entryDy=0;" edge="1" parent="OIMMLYKE_nMt5e0ipZ6Z-1" target="OIMMLYKE_nMt5e0ipZ6Z-50">
          <mxGeometry width="50" height="50" relative="1" as="geometry">
            <mxPoint x="150" y="330" as="sourcePoint" />
            <mxPoint x="200" y="280" as="targetPoint" />
          </mxGeometry>
        </mxCell>
        <mxCell id="OIMMLYKE_nMt5e0ipZ6Z-39" style="edgeStyle=orthogonalEdgeStyle;rounded=0;orthogonalLoop=1;jettySize=auto;html=1;exitX=0.5;exitY=1;exitDx=0;exitDy=0;entryX=0.5;entryY=0;entryDx=0;entryDy=0;" edge="1" parent="1" source="OIMMLYKE_nMt5e0ipZ6Z-33" target="OIMMLYKE_nMt5e0ipZ6Z-34">
          <mxGeometry relative="1" as="geometry" />
        </mxCell>
        <mxCell id="OIMMLYKE_nMt5e0ipZ6Z-33" value="&lt;font style=&quot;font-size: 16px;&quot;&gt;FC&lt;/font&gt;" style="rounded=0;whiteSpace=wrap;html=1;" vertex="1" parent="1">
          <mxGeometry x="414" y="170" width="100" height="30" as="geometry" />
        </mxCell>
        <mxCell id="OIMMLYKE_nMt5e0ipZ6Z-41" style="edgeStyle=orthogonalEdgeStyle;rounded=0;orthogonalLoop=1;jettySize=auto;html=1;exitX=0.5;exitY=1;exitDx=0;exitDy=0;entryX=0.5;entryY=0;entryDx=0;entryDy=0;" edge="1" parent="1" source="OIMMLYKE_nMt5e0ipZ6Z-34" target="OIMMLYKE_nMt5e0ipZ6Z-35">
          <mxGeometry relative="1" as="geometry" />
        </mxCell>
        <mxCell id="OIMMLYKE_nMt5e0ipZ6Z-34" value="&lt;font style=&quot;font-size: 16px;&quot;&gt;GELU&lt;/font&gt;" style="rounded=0;whiteSpace=wrap;html=1;" vertex="1" parent="1">
          <mxGeometry x="414" y="220" width="100" height="30" as="geometry" />
        </mxCell>
        <mxCell id="OIMMLYKE_nMt5e0ipZ6Z-42" style="edgeStyle=orthogonalEdgeStyle;rounded=0;orthogonalLoop=1;jettySize=auto;html=1;exitX=0.5;exitY=1;exitDx=0;exitDy=0;entryX=0.5;entryY=0;entryDx=0;entryDy=0;" edge="1" parent="1" source="OIMMLYKE_nMt5e0ipZ6Z-35" target="OIMMLYKE_nMt5e0ipZ6Z-36">
          <mxGeometry relative="1" as="geometry" />
        </mxCell>
        <mxCell id="OIMMLYKE_nMt5e0ipZ6Z-35" value="&lt;font style=&quot;font-size: 16px;&quot;&gt;LSK&lt;/font&gt;" style="rounded=0;whiteSpace=wrap;html=1;" vertex="1" parent="1">
          <mxGeometry x="414" y="270" width="100" height="30" as="geometry" />
        </mxCell>
        <mxCell id="OIMMLYKE_nMt5e0ipZ6Z-36" value="&lt;font style=&quot;font-size: 16px;&quot;&gt;FC&lt;/font&gt;" style="rounded=0;whiteSpace=wrap;html=1;" vertex="1" parent="1">
          <mxGeometry x="414" y="320" width="100" height="30" as="geometry" />
        </mxCell>
        <mxCell id="OIMMLYKE_nMt5e0ipZ6Z-38" value="" style="swimlane;startSize=0;dashed=1;" vertex="1" parent="1">
          <mxGeometry x="384" y="160" width="160" height="200" as="geometry" />
        </mxCell>
        <mxCell id="OIMMLYKE_nMt5e0ipZ6Z-43" style="edgeStyle=orthogonalEdgeStyle;rounded=0;orthogonalLoop=1;jettySize=auto;html=1;exitX=0.5;exitY=1;exitDx=0;exitDy=0;entryX=0.5;entryY=0;entryDx=0;entryDy=0;" edge="1" parent="1" source="OIMMLYKE_nMt5e0ipZ6Z-44" target="OIMMLYKE_nMt5e0ipZ6Z-46">
          <mxGeometry relative="1" as="geometry" />
        </mxCell>
        <mxCell id="OIMMLYKE_nMt5e0ipZ6Z-44" value="&lt;font style=&quot;font-size: 16px;&quot;&gt;FC&lt;/font&gt;" style="rounded=0;whiteSpace=wrap;html=1;" vertex="1" parent="1">
          <mxGeometry x="414" y="420" width="100" height="30" as="geometry" />
        </mxCell>
        <mxCell id="OIMMLYKE_nMt5e0ipZ6Z-45" style="edgeStyle=orthogonalEdgeStyle;rounded=0;orthogonalLoop=1;jettySize=auto;html=1;exitX=0.5;exitY=1;exitDx=0;exitDy=0;entryX=0.5;entryY=0;entryDx=0;entryDy=0;" edge="1" parent="1" source="OIMMLYKE_nMt5e0ipZ6Z-46" target="OIMMLYKE_nMt5e0ipZ6Z-48">
          <mxGeometry relative="1" as="geometry" />
        </mxCell>
        <mxCell id="OIMMLYKE_nMt5e0ipZ6Z-46" value="&lt;font style=&quot;font-size: 16px;&quot;&gt;DW_Conv&lt;/font&gt;" style="rounded=0;whiteSpace=wrap;html=1;" vertex="1" parent="1">
          <mxGeometry x="414" y="470" width="100" height="30" as="geometry" />
        </mxCell>
        <mxCell id="OIMMLYKE_nMt5e0ipZ6Z-47" style="edgeStyle=orthogonalEdgeStyle;rounded=0;orthogonalLoop=1;jettySize=auto;html=1;exitX=0.5;exitY=1;exitDx=0;exitDy=0;entryX=0.5;entryY=0;entryDx=0;entryDy=0;" edge="1" parent="1" source="OIMMLYKE_nMt5e0ipZ6Z-48" target="OIMMLYKE_nMt5e0ipZ6Z-49">
          <mxGeometry relative="1" as="geometry" />
        </mxCell>
        <mxCell id="OIMMLYKE_nMt5e0ipZ6Z-48" value="&lt;span style=&quot;font-size: 16px;&quot;&gt;GELU&lt;/span&gt;" style="rounded=0;whiteSpace=wrap;html=1;" vertex="1" parent="1">
          <mxGeometry x="414" y="520" width="100" height="30" as="geometry" />
        </mxCell>
        <mxCell id="OIMMLYKE_nMt5e0ipZ6Z-49" value="&lt;font style=&quot;font-size: 16px;&quot;&gt;FC&lt;/font&gt;" style="rounded=0;whiteSpace=wrap;html=1;" vertex="1" parent="1">
          <mxGeometry x="414" y="570" width="100" height="30" as="geometry" />
        </mxCell>
        <mxCell id="OIMMLYKE_nMt5e0ipZ6Z-50" value="" style="swimlane;startSize=0;dashed=1;" vertex="1" parent="1">
          <mxGeometry x="384" y="410" width="160" height="200" as="geometry" />
        </mxCell>
      </root>
    </mxGraphModel>
  </diagram>
</mxfile>
